# xmcd
#
# Track frame offsets:
#	150
#	41618
#	72621
#	108519
#	140976
#	188772
#	218453
#	271109
#	315882
#
# Disc length: 4615 seconds
#
# Revision: 2
# Processed by: cddbd v1.5.2PL0 Copyright (c) Steve Scherf et al.
# Submitted via: audiograbber 1.83.01
#
DISCID=81120509
DTITLE=Steve Swanson - Breakthrough
DYEAR=2008
DGENRE=Contemporary ChristianChristian Rock
TTITLE0=House Of Wine
TTITLE1=Seated Together
TTITLE2=The Kingdom Of God Is Here
TTITLE3=God of Breakthrough
TTITLE4=Break Open The Skies
TTITLE5=Higher
TTITLE6=Out Of My Mind
TTITLE7=Glory, King Of Glory
TTITLE8=If It's You
EXTD=
EXTT0=
EXTT1=
EXTT2=
EXTT3=
EXTT4=
EXTT5=
EXTT6=
EXTT7=
EXTT8=
PLAYORDER=
